# xmcd
#
# Track frame offsets: 
#        150
#        12220
#        25344
#        39482
#        51782
#        63885
#        76260
#        87100
#        100155
#        111202
#        122529
#        134042
#        146680
#        158370
#        169665
#        181075
#        191620
#        202787
#        211875
#        221207
#
# Disc length: 3133 seconds
#
# Revision: 6
# Processed by: cddbd v1.5.2PL0 Copyright (c) Steve Scherf et al.
# Submitted via: ExactAudioCopy v1.0b1
#
DISCID=080c3b14
DTITLE=Various Artist - Only Country 1950-1954
DYEAR=1995
DGENRE=Country
TTITLE0=Ernest Tubb - I Love You Because
TTITLE1=T Texas Tyler - Bumming Around
TTITLE2=Rex Allen - Crying In The Chapel
TTITLE3=Hank Thompson - The Wild Side Of Life
TTITLE4=Jimmy Heap And The Melody Masters - Release Me
TTITLE5=Skeets McDonald - Don't Let The Stars Get In Your Eyes
TTITLE6=Webb Pierce - There Stands The Glass
TTITLE7=Hank Williams - Jambalaya (On The Bayou)
TTITLE8=Carlisles - No Help Wanted
TTITLE9=Carl Smith - Hey Joe
TTITLE10=Kitty Wells - It Wasn't God Who Made Honky Tonk Angels
TTITLE11=Red Foley - Chattanoogie Shoe Shine Boy
TTITLE12=Goldie Hill (The Golden Hillbilly) - I Let The Stars Get In M
TTITLE12=y Eyes
TTITLE13=Wanda Jackson And Billy Gray - You Can't Have My Love
TTITLE14=Jean Shepard And Ferlin Husky - A Dear John Letter
TTITLE15=Slim Whitman - Rose-Marie
TTITLE16=Hank Locklin - Let Me Be The One
TTITLE17=Jimmy C. Newman - Cry Cry Darling
TTITLE18=Lefty Frizzell - If You've Got The Money I've Got The Time
TTITLE19=Red Foley And Ernest Tubb - Goodnight Irene
EXTD=MCA MSD-35900 JCD-3151
EXTT0=
EXTT1=
EXTT2=
EXTT3=
EXTT4=
EXTT5=
EXTT6=
EXTT7=
EXTT8=
EXTT9=
EXTT10=
EXTT11=
EXTT12=
EXTT13=
EXTT14=
EXTT15=
EXTT16=
EXTT17=
EXTT18=
EXTT19=
PLAYORDER=
